<svg xmlns="http://www.w3.org/2000/svg" viewBox="0 0 64 64">
  <!-- Bright green cannabis leaf filling entire favicon -->
  <rect width="64" height="64" rx="8" fill="#0A0E27"/>
  <!-- Main stem -->
  <line x1="32" y1="58" x2="32" y2="28" stroke="#22c55e" stroke-width="3" stroke-linecap="round"/>
  <!-- Center leaf (largest) -->
  <path d="M32 8 C32 8, 22 18, 22 26 C22 30, 26 32, 32 28 C38 32, 42 30, 42 26 C42 18, 32 8, 32 8Z" fill="#22c55e"/>
  <!-- Left leaf -->
  <path d="M18 14 C18 14, 14 24, 18 30 C20 33, 24 32, 26 28 C24 26, 20 18, 18 14Z" fill="#16a34a"/>
  <!-- Right leaf -->
  <path d="M46 14 C46 14, 50 24, 46 30 C44 33, 40 32, 38 28 C40 26, 44 18, 46 14Z" fill="#16a34a"/>
  <!-- Far left leaf -->
  <path d="M10 22 C10 22, 10 30, 16 34 C18 35, 22 33, 22 30 C20 28, 14 24, 10 22Z" fill="#15803d"/>
  <!-- Far right leaf -->
  <path d="M54 22 C54 22, 54 30, 48 34 C46 35, 42 33, 42 30 C44 28, 50 24, 54 22Z" fill="#15803d"/>
  <!-- Leaf vein details -->
  <line x1="32" y1="12" x2="32" y2="26" stroke="#15803d" stroke-width="1" opacity="0.6"/>
  <line x1="22" y1="18" x2="25" y2="28" stroke="#0f6b2f" stroke-width="0.8" opacity="0.5"/>
  <line x1="42" y1="18" x2="39" y2="28" stroke="#0f6b2f" stroke-width="0.8" opacity="0.5"/>
</svg>